<mxfile host="www.draw.io" modified="2020-01-11T11:15:22.304Z" agent="Mozilla/5.0 (Windows NT 10.0; Win64; x64) AppleWebKit/537.36 (KHTML, like Gecko) Chrome/79.0.3945.117 Safari/537.36" etag="IPd-MD07Lf0qxikf7Iue" version="12.5.1" type="github">
  <diagram id="nUwmie2sHwCzWKocFMr6" name="第 1 页">
    <mxGraphModel dx="2194" dy="1947" grid="0" gridSize="10" guides="1" tooltips="1" connect="1" arrows="1" fold="1" page="0" pageScale="1" pageWidth="980" pageHeight="690" math="1" shadow="0">
      <root>
        <mxCell id="0"/>
        <mxCell id="1" parent="0"/>
        <mxCell id="ioMPT5hYQp6Kv1KVYnrM-2" value="" style="group" vertex="1" connectable="0" parent="1">
          <mxGeometry x="608" y="-1066" width="237.5" height="260" as="geometry"/>
        </mxCell>
        <mxCell id="qDkP6Ug6QtMpbC8-zeVZ-24" value="" style="group" parent="ioMPT5hYQp6Kv1KVYnrM-2" vertex="1" connectable="0">
          <mxGeometry x="2" width="237.5" height="260" as="geometry"/>
        </mxCell>
        <mxCell id="qDkP6Ug6QtMpbC8-zeVZ-23" value="" style="group" parent="qDkP6Ug6QtMpbC8-zeVZ-24" vertex="1" connectable="0">
          <mxGeometry width="237.5" height="260" as="geometry"/>
        </mxCell>
        <mxCell id="qDkP6Ug6QtMpbC8-zeVZ-1" value="权重层" style="rounded=0;whiteSpace=wrap;html=1;" parent="qDkP6Ug6QtMpbC8-zeVZ-23" vertex="1">
          <mxGeometry y="70" width="130" height="30" as="geometry"/>
        </mxCell>
        <mxCell id="qDkP6Ug6QtMpbC8-zeVZ-4" value="" style="edgeStyle=orthogonalEdgeStyle;rounded=0;orthogonalLoop=1;jettySize=auto;html=1;entryX=0.5;entryY=0;entryDx=0;entryDy=0;" parent="qDkP6Ug6QtMpbC8-zeVZ-23" source="qDkP6Ug6QtMpbC8-zeVZ-2" target="qDkP6Ug6QtMpbC8-zeVZ-13" edge="1">
          <mxGeometry relative="1" as="geometry">
            <mxPoint x="65.5" y="210" as="targetPoint"/>
          </mxGeometry>
        </mxCell>
        <mxCell id="qDkP6Ug6QtMpbC8-zeVZ-2" value="权重层" style="rounded=0;whiteSpace=wrap;html=1;" parent="qDkP6Ug6QtMpbC8-zeVZ-23" vertex="1">
          <mxGeometry y="140" width="130" height="30" as="geometry"/>
        </mxCell>
        <mxCell id="qDkP6Ug6QtMpbC8-zeVZ-3" value="" style="edgeStyle=orthogonalEdgeStyle;rounded=0;orthogonalLoop=1;jettySize=auto;html=1;" parent="qDkP6Ug6QtMpbC8-zeVZ-23" source="qDkP6Ug6QtMpbC8-zeVZ-1" target="qDkP6Ug6QtMpbC8-zeVZ-2" edge="1">
          <mxGeometry relative="1" as="geometry"/>
        </mxCell>
        <mxCell id="qDkP6Ug6QtMpbC8-zeVZ-7" value="" style="endArrow=classic;html=1;entryX=0.5;entryY=0;entryDx=0;entryDy=0;" parent="qDkP6Ug6QtMpbC8-zeVZ-23" target="qDkP6Ug6QtMpbC8-zeVZ-1" edge="1">
          <mxGeometry width="50" height="50" relative="1" as="geometry">
            <mxPoint x="65.5" as="sourcePoint"/>
            <mxPoint x="17.5" y="-110" as="targetPoint"/>
          </mxGeometry>
        </mxCell>
        <mxCell id="qDkP6Ug6QtMpbC8-zeVZ-9" value="x" style="text;html=1;align=center;verticalAlign=middle;resizable=0;points=[];autosize=1;" parent="qDkP6Ug6QtMpbC8-zeVZ-23" vertex="1">
          <mxGeometry x="40" y="20" width="20" height="20" as="geometry"/>
        </mxCell>
        <mxCell id="qDkP6Ug6QtMpbC8-zeVZ-13" value="" style="shape=orEllipse;perimeter=ellipsePerimeter;whiteSpace=wrap;html=1;backgroundOutline=1;" parent="qDkP6Ug6QtMpbC8-zeVZ-23" vertex="1">
          <mxGeometry x="57.5" y="207.5" width="15" height="15" as="geometry"/>
        </mxCell>
        <mxCell id="qDkP6Ug6QtMpbC8-zeVZ-16" value="" style="endArrow=classic;html=1;entryX=1;entryY=0.5;entryDx=0;entryDy=0;curved=1;" parent="qDkP6Ug6QtMpbC8-zeVZ-23" target="qDkP6Ug6QtMpbC8-zeVZ-13" edge="1">
          <mxGeometry width="50" height="50" relative="1" as="geometry">
            <mxPoint x="65.5" y="10" as="sourcePoint"/>
            <mxPoint x="87.5" y="220" as="targetPoint"/>
            <Array as="points">
              <mxPoint x="364" y="138"/>
            </Array>
          </mxGeometry>
        </mxCell>
        <mxCell id="qDkP6Ug6QtMpbC8-zeVZ-17" value="x" style="text;html=1;strokeColor=none;fillColor=none;align=center;verticalAlign=middle;whiteSpace=wrap;rounded=0;" parent="qDkP6Ug6QtMpbC8-zeVZ-23" vertex="1">
          <mxGeometry x="188.5" y="117" width="40" height="20" as="geometry"/>
        </mxCell>
        <mxCell id="qDkP6Ug6QtMpbC8-zeVZ-18" value="ReLU" style="text;html=1;strokeColor=none;fillColor=none;align=center;verticalAlign=middle;whiteSpace=wrap;rounded=0;" parent="qDkP6Ug6QtMpbC8-zeVZ-23" vertex="1">
          <mxGeometry x="20.5" y="110" width="40" height="20" as="geometry"/>
        </mxCell>
        <mxCell id="qDkP6Ug6QtMpbC8-zeVZ-19" value="" style="endArrow=classic;html=1;" parent="qDkP6Ug6QtMpbC8-zeVZ-23" edge="1">
          <mxGeometry width="50" height="50" relative="1" as="geometry">
            <mxPoint x="64.5" y="222.5" as="sourcePoint"/>
            <mxPoint x="64.5" y="260" as="targetPoint"/>
          </mxGeometry>
        </mxCell>
        <mxCell id="qDkP6Ug6QtMpbC8-zeVZ-21" value="F(x)+x" style="text;html=1;strokeColor=none;fillColor=none;align=center;verticalAlign=middle;whiteSpace=wrap;rounded=0;" parent="qDkP6Ug6QtMpbC8-zeVZ-23" vertex="1">
          <mxGeometry x="10" y="205" width="40" height="20" as="geometry"/>
        </mxCell>
        <mxCell id="qDkP6Ug6QtMpbC8-zeVZ-22" value="ReLU" style="text;html=1;strokeColor=none;fillColor=none;align=center;verticalAlign=middle;whiteSpace=wrap;rounded=0;" parent="qDkP6Ug6QtMpbC8-zeVZ-23" vertex="1">
          <mxGeometry x="60.5" y="230" width="40" height="20" as="geometry"/>
        </mxCell>
        <mxCell id="qDkP6Ug6QtMpbC8-zeVZ-25" value="ReLU" style="text;html=1;strokeColor=none;fillColor=none;align=center;verticalAlign=middle;whiteSpace=wrap;rounded=0;" parent="qDkP6Ug6QtMpbC8-zeVZ-23" vertex="1">
          <mxGeometry x="60.5" y="173" width="40" height="20" as="geometry"/>
        </mxCell>
        <mxCell id="yfSVTweIdZOEQNZggC8J-3" value="&lt;p style=&quot;line-height: 90%&quot;&gt;卷积层&lt;br&gt;&lt;/p&gt;" style="rounded=0;whiteSpace=wrap;html=1;rotation=90;fillColor=#ffe6cc;strokeColor=#d79b00;" parent="1" vertex="1">
          <mxGeometry x="517" y="-256.5" width="170" height="25" as="geometry"/>
        </mxCell>
        <mxCell id="yfSVTweIdZOEQNZggC8J-5" value="&lt;p style=&quot;line-height: 90%&quot;&gt;瓶颈残差块&lt;/p&gt;" style="rounded=0;whiteSpace=wrap;html=1;rotation=90;fillColor=#d0cee2;strokeColor=#56517e;" parent="1" vertex="1">
          <mxGeometry x="599.5" y="-256.5" width="170" height="25" as="geometry"/>
        </mxCell>
        <mxCell id="yfSVTweIdZOEQNZggC8J-6" value="&lt;p style=&quot;line-height: 90%&quot;&gt;瓶颈残差块&lt;/p&gt;" style="rounded=0;whiteSpace=wrap;html=1;rotation=90;fillColor=#d0cee2;strokeColor=#56517e;" parent="1" vertex="1">
          <mxGeometry x="629.5" y="-256.5" width="170" height="25" as="geometry"/>
        </mxCell>
        <mxCell id="yfSVTweIdZOEQNZggC8J-7" value="&lt;p style=&quot;line-height: 90%&quot;&gt;瓶颈残差块&lt;/p&gt;" style="rounded=0;whiteSpace=wrap;html=1;rotation=90;fillColor=#d0cee2;strokeColor=#56517e;" parent="1" vertex="1">
          <mxGeometry x="659.5" y="-256.5" width="170" height="25" as="geometry"/>
        </mxCell>
        <mxCell id="yfSVTweIdZOEQNZggC8J-8" value="&lt;p style=&quot;line-height: 90%&quot;&gt;瓶颈残差块&lt;/p&gt;" style="rounded=0;whiteSpace=wrap;html=1;rotation=90;fillColor=#d5e8d4;strokeColor=#82b366;" parent="1" vertex="1">
          <mxGeometry x="729.5" y="-256.5" width="170" height="25" as="geometry"/>
        </mxCell>
        <mxCell id="yfSVTweIdZOEQNZggC8J-9" value="&lt;p style=&quot;line-height: 90%&quot;&gt;瓶颈残差块&lt;/p&gt;" style="rounded=0;whiteSpace=wrap;html=1;rotation=90;fillColor=#d5e8d4;strokeColor=#82b366;" parent="1" vertex="1">
          <mxGeometry x="759.5" y="-256.5" width="170" height="25" as="geometry"/>
        </mxCell>
        <mxCell id="yfSVTweIdZOEQNZggC8J-10" value="&lt;p style=&quot;line-height: 90%&quot;&gt;瓶颈残差块&lt;/p&gt;" style="rounded=0;whiteSpace=wrap;html=1;rotation=90;fillColor=#d5e8d4;strokeColor=#82b366;" parent="1" vertex="1">
          <mxGeometry x="789.5" y="-256.5" width="170" height="25" as="geometry"/>
        </mxCell>
        <mxCell id="yfSVTweIdZOEQNZggC8J-11" value="&lt;p style=&quot;line-height: 90%&quot;&gt;瓶颈残差块&lt;/p&gt;" style="rounded=0;whiteSpace=wrap;html=1;rotation=90;fillColor=#1ba1e2;strokeColor=#006EAF;fontColor=#ffffff;" parent="1" vertex="1">
          <mxGeometry x="909.5" y="-256.5" width="170" height="25" as="geometry"/>
        </mxCell>
        <mxCell id="yfSVTweIdZOEQNZggC8J-12" value="&lt;p style=&quot;line-height: 90%&quot;&gt;瓶颈残差块&lt;/p&gt;" style="rounded=0;whiteSpace=wrap;html=1;rotation=90;fillColor=#1ba1e2;strokeColor=#006EAF;fontColor=#ffffff;" parent="1" vertex="1">
          <mxGeometry x="939.5" y="-256.5" width="170" height="25" as="geometry"/>
        </mxCell>
        <mxCell id="yfSVTweIdZOEQNZggC8J-13" value="&lt;p style=&quot;line-height: 90%&quot;&gt;瓶颈残差块&lt;/p&gt;" style="rounded=0;whiteSpace=wrap;html=1;rotation=90;fillColor=#1ba1e2;strokeColor=#006EAF;fontColor=#ffffff;" parent="1" vertex="1">
          <mxGeometry x="969.5" y="-256.5" width="170" height="25" as="geometry"/>
        </mxCell>
        <mxCell id="yfSVTweIdZOEQNZggC8J-14" value="&lt;p style=&quot;line-height: 90%&quot;&gt;瓶颈残差块&lt;/p&gt;" style="rounded=0;whiteSpace=wrap;html=1;rotation=90;fillColor=#1ba1e2;strokeColor=#006EAF;fontColor=#ffffff;" parent="1" vertex="1">
          <mxGeometry x="999.5" y="-256.5" width="170" height="25" as="geometry"/>
        </mxCell>
        <mxCell id="yfSVTweIdZOEQNZggC8J-15" value="&lt;p style=&quot;line-height: 90%&quot;&gt;瓶颈残差块&lt;/p&gt;" style="rounded=0;whiteSpace=wrap;html=1;rotation=90;fillColor=#1ba1e2;strokeColor=#006EAF;fontColor=#ffffff;" parent="1" vertex="1">
          <mxGeometry x="1029.5" y="-256.5" width="170" height="25" as="geometry"/>
        </mxCell>
        <mxCell id="yfSVTweIdZOEQNZggC8J-16" value="&lt;p style=&quot;line-height: 90%&quot;&gt;瓶颈残差块&lt;/p&gt;" style="rounded=0;whiteSpace=wrap;html=1;rotation=90;fillColor=#1ba1e2;strokeColor=#006EAF;fontColor=#ffffff;" parent="1" vertex="1">
          <mxGeometry x="1059.5" y="-256.5" width="170" height="25" as="geometry"/>
        </mxCell>
        <mxCell id="yfSVTweIdZOEQNZggC8J-17" value="&lt;p style=&quot;line-height: 90%&quot;&gt;瓶颈残差块&lt;/p&gt;" style="rounded=0;whiteSpace=wrap;html=1;rotation=90;fillColor=#fa6800;strokeColor=#C73500;fontColor=#ffffff;" parent="1" vertex="1">
          <mxGeometry x="1139.5" y="-256.5" width="170" height="25" as="geometry"/>
        </mxCell>
        <mxCell id="yfSVTweIdZOEQNZggC8J-18" value="&lt;p style=&quot;line-height: 90%&quot;&gt;瓶颈残差块&lt;/p&gt;" style="rounded=0;whiteSpace=wrap;html=1;rotation=90;fillColor=#fa6800;strokeColor=#C73500;fontColor=#ffffff;" parent="1" vertex="1">
          <mxGeometry x="1169.5" y="-256.5" width="170" height="25" as="geometry"/>
        </mxCell>
        <mxCell id="yfSVTweIdZOEQNZggC8J-19" value="&lt;p style=&quot;line-height: 90%&quot;&gt;瓶颈残差块&lt;/p&gt;" style="rounded=0;whiteSpace=wrap;html=1;rotation=90;fillColor=#fa6800;strokeColor=#C73500;fontColor=#ffffff;" parent="1" vertex="1">
          <mxGeometry x="1199.5" y="-256.5" width="170" height="25" as="geometry"/>
        </mxCell>
        <mxCell id="yfSVTweIdZOEQNZggC8J-21" value="" style="endArrow=classic;html=1;" parent="1" edge="1">
          <mxGeometry width="50" height="50" relative="1" as="geometry">
            <mxPoint x="537" y="-245" as="sourcePoint"/>
            <mxPoint x="577" y="-245" as="targetPoint"/>
            <Array as="points">
              <mxPoint x="547" y="-245"/>
            </Array>
          </mxGeometry>
        </mxCell>
        <mxCell id="yfSVTweIdZOEQNZggC8J-22" value="" style="endArrow=classic;html=1;" parent="1" edge="1">
          <mxGeometry width="50" height="50" relative="1" as="geometry">
            <mxPoint x="695" y="-244" as="sourcePoint"/>
            <mxPoint x="705" y="-244" as="targetPoint"/>
          </mxGeometry>
        </mxCell>
        <mxCell id="yfSVTweIdZOEQNZggC8J-23" value="" style="endArrow=classic;html=1;" parent="1" edge="1">
          <mxGeometry width="50" height="50" relative="1" as="geometry">
            <mxPoint x="724.5" y="-245" as="sourcePoint"/>
            <mxPoint x="734.5" y="-245" as="targetPoint"/>
          </mxGeometry>
        </mxCell>
        <mxCell id="yfSVTweIdZOEQNZggC8J-24" value="" style="endArrow=classic;html=1;" parent="1" edge="1">
          <mxGeometry width="50" height="50" relative="1" as="geometry">
            <mxPoint x="677" y="-49" as="sourcePoint"/>
            <mxPoint x="687" y="-49" as="targetPoint"/>
          </mxGeometry>
        </mxCell>
        <mxCell id="yfSVTweIdZOEQNZggC8J-25" value="" style="endArrow=classic;html=1;" parent="1" edge="1">
          <mxGeometry width="50" height="50" relative="1" as="geometry">
            <mxPoint x="687" y="-39" as="sourcePoint"/>
            <mxPoint x="697" y="-39" as="targetPoint"/>
          </mxGeometry>
        </mxCell>
        <mxCell id="yfSVTweIdZOEQNZggC8J-26" value="" style="endArrow=classic;html=1;" parent="1" edge="1">
          <mxGeometry width="50" height="50" relative="1" as="geometry">
            <mxPoint x="697" y="-29" as="sourcePoint"/>
            <mxPoint x="707" y="-29" as="targetPoint"/>
          </mxGeometry>
        </mxCell>
        <mxCell id="yfSVTweIdZOEQNZggC8J-27" value="" style="endArrow=classic;html=1;" parent="1" edge="1">
          <mxGeometry width="50" height="50" relative="1" as="geometry">
            <mxPoint x="707" y="-19" as="sourcePoint"/>
            <mxPoint x="717" y="-19" as="targetPoint"/>
          </mxGeometry>
        </mxCell>
        <mxCell id="yfSVTweIdZOEQNZggC8J-28" value="" style="endArrow=classic;html=1;" parent="1" edge="1">
          <mxGeometry width="50" height="50" relative="1" as="geometry">
            <mxPoint x="717" y="-9" as="sourcePoint"/>
            <mxPoint x="727" y="-9" as="targetPoint"/>
          </mxGeometry>
        </mxCell>
        <mxCell id="yfSVTweIdZOEQNZggC8J-29" value="" style="endArrow=classic;html=1;" parent="1" edge="1">
          <mxGeometry width="50" height="50" relative="1" as="geometry">
            <mxPoint x="727" y="1" as="sourcePoint"/>
            <mxPoint x="737" y="1" as="targetPoint"/>
          </mxGeometry>
        </mxCell>
        <mxCell id="yfSVTweIdZOEQNZggC8J-30" value="" style="endArrow=classic;html=1;" parent="1" edge="1">
          <mxGeometry width="50" height="50" relative="1" as="geometry">
            <mxPoint x="737" y="11" as="sourcePoint"/>
            <mxPoint x="747" y="11" as="targetPoint"/>
          </mxGeometry>
        </mxCell>
        <mxCell id="yfSVTweIdZOEQNZggC8J-31" value="" style="endArrow=classic;html=1;" parent="1" edge="1">
          <mxGeometry width="50" height="50" relative="1" as="geometry">
            <mxPoint x="747" y="21" as="sourcePoint"/>
            <mxPoint x="757" y="21" as="targetPoint"/>
          </mxGeometry>
        </mxCell>
        <mxCell id="yfSVTweIdZOEQNZggC8J-32" value="" style="endArrow=classic;html=1;" parent="1" edge="1">
          <mxGeometry width="50" height="50" relative="1" as="geometry">
            <mxPoint x="757" y="31" as="sourcePoint"/>
            <mxPoint x="767" y="31" as="targetPoint"/>
          </mxGeometry>
        </mxCell>
        <mxCell id="yfSVTweIdZOEQNZggC8J-33" value="" style="endArrow=classic;html=1;" parent="1" edge="1">
          <mxGeometry width="50" height="50" relative="1" as="geometry">
            <mxPoint x="767" y="41" as="sourcePoint"/>
            <mxPoint x="777" y="41" as="targetPoint"/>
          </mxGeometry>
        </mxCell>
        <mxCell id="yfSVTweIdZOEQNZggC8J-34" value="&lt;p style=&quot;line-height: 90%&quot;&gt;瓶颈残差块&lt;/p&gt;" style="rounded=0;whiteSpace=wrap;html=1;rotation=90;fillColor=#d5e8d4;strokeColor=#82b366;" parent="1" vertex="1">
          <mxGeometry x="819.5" y="-256.5" width="170" height="25" as="geometry"/>
        </mxCell>
        <mxCell id="yfSVTweIdZOEQNZggC8J-35" value="" style="endArrow=classic;html=1;" parent="1" edge="1">
          <mxGeometry width="50" height="50" relative="1" as="geometry">
            <mxPoint x="622" y="-245" as="sourcePoint"/>
            <mxPoint x="662" y="-245" as="targetPoint"/>
            <Array as="points">
              <mxPoint x="632" y="-245"/>
            </Array>
          </mxGeometry>
        </mxCell>
        <mxCell id="yfSVTweIdZOEQNZggC8J-36" value="池化" style="text;html=1;strokeColor=none;fillColor=none;align=center;verticalAlign=middle;whiteSpace=wrap;rounded=0;" parent="1" vertex="1">
          <mxGeometry x="620" y="-264" width="40" height="20" as="geometry"/>
        </mxCell>
        <mxCell id="yfSVTweIdZOEQNZggC8J-37" value="池化" style="text;html=1;strokeColor=none;fillColor=none;align=center;verticalAlign=middle;whiteSpace=wrap;rounded=0;" parent="1" vertex="1">
          <mxGeometry x="536" y="-264" width="40" height="20" as="geometry"/>
        </mxCell>
        <mxCell id="yfSVTweIdZOEQNZggC8J-40" value="" style="curved=1;endArrow=classic;html=1;entryX=0.5;entryY=0;entryDx=0;entryDy=0;" parent="1" target="yfSVTweIdZOEQNZggC8J-5" edge="1">
          <mxGeometry width="50" height="50" relative="1" as="geometry">
            <mxPoint x="660" y="-249" as="sourcePoint"/>
            <mxPoint x="677" y="-359" as="targetPoint"/>
            <Array as="points">
              <mxPoint x="657" y="-339"/>
              <mxPoint x="685" y="-399"/>
              <mxPoint x="697" y="-369"/>
              <mxPoint x="697" y="-349"/>
              <mxPoint x="697" y="-339"/>
              <mxPoint x="697" y="-319"/>
              <mxPoint x="697" y="-289"/>
            </Array>
          </mxGeometry>
        </mxCell>
        <mxCell id="yfSVTweIdZOEQNZggC8J-43" value="&lt;p style=&quot;line-height: 90%&quot;&gt;瓶颈残差块&lt;/p&gt;" style="rounded=0;whiteSpace=wrap;html=1;rotation=90;fillColor=#fa6800;strokeColor=#C73500;fontColor=#ffffff;" parent="1" vertex="1">
          <mxGeometry x="679" y="-636" width="170" height="25" as="geometry"/>
        </mxCell>
        <mxCell id="yfSVTweIdZOEQNZggC8J-44" value="输入" style="rounded=0;whiteSpace=wrap;html=1;" parent="1" vertex="1">
          <mxGeometry x="257" y="-1019" width="130" height="30" as="geometry"/>
        </mxCell>
        <mxCell id="yfSVTweIdZOEQNZggC8J-45" value="11*11卷积，96个核" style="rounded=0;whiteSpace=wrap;html=1;" parent="1" vertex="1">
          <mxGeometry x="257" y="-969" width="130" height="30" as="geometry"/>
        </mxCell>
        <mxCell id="yfSVTweIdZOEQNZggC8J-47" value="3*3池化" style="rounded=0;whiteSpace=wrap;html=1;" parent="1" vertex="1">
          <mxGeometry x="257" y="-929" width="130" height="30" as="geometry"/>
        </mxCell>
        <mxCell id="qDkP6Ug6QtMpbC8-zeVZ-6" value="" style="shape=mxgraph.bpmn.loop;html=1;outlineConnect=0;" parent="1" vertex="1">
          <mxGeometry x="255" y="-1066" width="14" height="14" as="geometry"/>
        </mxCell>
        <mxCell id="qDkP6Ug6QtMpbC8-zeVZ-10" value="" style="ellipse;whiteSpace=wrap;html=1;aspect=fixed;" parent="1" vertex="1">
          <mxGeometry x="182" y="-1109" width="30" height="30" as="geometry"/>
        </mxCell>
        <mxCell id="qDkP6Ug6QtMpbC8-zeVZ-20" value="F(x)" style="text;html=1;strokeColor=none;fillColor=none;align=center;verticalAlign=middle;whiteSpace=wrap;rounded=0;" parent="1" vertex="1">
          <mxGeometry x="540" y="-1094" width="40" height="20" as="geometry"/>
        </mxCell>
        <mxCell id="qDkP6Ug6QtMpbC8-zeVZ-26" value="" style="rounded=1;whiteSpace=wrap;html=1;" parent="1" vertex="1">
          <mxGeometry x="321" y="-809" width="85" height="47" as="geometry"/>
        </mxCell>
        <mxCell id="qDkP6Ug6QtMpbC8-zeVZ-27" value="" style="rounded=1;whiteSpace=wrap;html=1;" parent="1" vertex="1">
          <mxGeometry x="451.5" y="-809" width="85" height="47" as="geometry"/>
        </mxCell>
        <mxCell id="qDkP6Ug6QtMpbC8-zeVZ-28" value="" style="rounded=1;whiteSpace=wrap;html=1;" parent="1" vertex="1">
          <mxGeometry x="580" y="-630" width="85" height="47" as="geometry"/>
        </mxCell>
        <mxCell id="qDkP6Ug6QtMpbC8-zeVZ-29" value="" style="ellipse;whiteSpace=wrap;html=1;aspect=fixed;" parent="1" vertex="1">
          <mxGeometry x="416" y="-794.5" width="18" height="18" as="geometry"/>
        </mxCell>
        <mxCell id="qDkP6Ug6QtMpbC8-zeVZ-30" value="" style="ellipse;whiteSpace=wrap;html=1;aspect=fixed;" parent="1" vertex="1">
          <mxGeometry x="553.5" y="-794.5" width="18" height="18" as="geometry"/>
        </mxCell>
        <mxCell id="qDkP6Ug6QtMpbC8-zeVZ-31" value="" style="ellipse;whiteSpace=wrap;html=1;aspect=fixed;" parent="1" vertex="1">
          <mxGeometry x="682.5" y="-615.5" width="18" height="18" as="geometry"/>
        </mxCell>
        <mxCell id="qDkP6Ug6QtMpbC8-zeVZ-32" value="" style="endArrow=none;html=1;" parent="1" edge="1">
          <mxGeometry width="50" height="50" relative="1" as="geometry">
            <mxPoint x="259" y="-786" as="sourcePoint"/>
            <mxPoint x="321" y="-786" as="targetPoint"/>
          </mxGeometry>
        </mxCell>
        <mxCell id="qDkP6Ug6QtMpbC8-zeVZ-34" value="" style="rounded=0;whiteSpace=wrap;html=1;rotation=-35;" parent="1" vertex="1">
          <mxGeometry x="-58.5" y="-1072" width="120" height="60" as="geometry"/>
        </mxCell>
        <mxCell id="qDkP6Ug6QtMpbC8-zeVZ-37" value="" style="rounded=0;whiteSpace=wrap;html=1;rotation=-35;" parent="1" vertex="1">
          <mxGeometry x="-38" y="-1074" width="120" height="60" as="geometry"/>
        </mxCell>
        <mxCell id="qDkP6Ug6QtMpbC8-zeVZ-38" value="" style="rounded=0;whiteSpace=wrap;html=1;rotation=-35;" parent="1" vertex="1">
          <mxGeometry x="65" y="-1049" width="120" height="60" as="geometry"/>
        </mxCell>
        <mxCell id="qDkP6Ug6QtMpbC8-zeVZ-41" value="" style="endArrow=classic;html=1;curved=1;" parent="1" edge="1">
          <mxGeometry width="50" height="50" relative="1" as="geometry">
            <mxPoint x="352" y="-1113" as="sourcePoint"/>
            <mxPoint x="402" y="-1163" as="targetPoint"/>
            <Array as="points">
              <mxPoint x="413" y="-1106"/>
            </Array>
          </mxGeometry>
        </mxCell>
        <mxCell id="ioMPT5hYQp6Kv1KVYnrM-26" value="权重层" style="rounded=0;whiteSpace=wrap;html=1;shadow=0;" vertex="1" parent="1">
          <mxGeometry x="1433" y="-1040" width="130" height="30" as="geometry"/>
        </mxCell>
        <mxCell id="ioMPT5hYQp6Kv1KVYnrM-27" value="权重层" style="rounded=0;whiteSpace=wrap;html=1;shadow=0;" vertex="1" parent="1">
          <mxGeometry x="1435" y="-972" width="130" height="30" as="geometry"/>
        </mxCell>
        <mxCell id="ioMPT5hYQp6Kv1KVYnrM-37" value="" style="group" vertex="1" connectable="0" parent="1">
          <mxGeometry x="918" y="-1070" width="247" height="260" as="geometry"/>
        </mxCell>
        <mxCell id="ioMPT5hYQp6Kv1KVYnrM-7" value="权重层" style="rounded=0;whiteSpace=wrap;html=1;shadow=0;" vertex="1" parent="ioMPT5hYQp6Kv1KVYnrM-37">
          <mxGeometry y="44" width="130" height="30" as="geometry"/>
        </mxCell>
        <mxCell id="ioMPT5hYQp6Kv1KVYnrM-9" value="权重层" style="rounded=0;whiteSpace=wrap;html=1;shadow=0;" vertex="1" parent="ioMPT5hYQp6Kv1KVYnrM-37">
          <mxGeometry y="100" width="130" height="30" as="geometry"/>
        </mxCell>
        <mxCell id="ioMPT5hYQp6Kv1KVYnrM-10" value="" style="edgeStyle=orthogonalEdgeStyle;rounded=0;orthogonalLoop=1;jettySize=auto;html=1;shadow=0;" edge="1" parent="ioMPT5hYQp6Kv1KVYnrM-37" source="ioMPT5hYQp6Kv1KVYnrM-7" target="ioMPT5hYQp6Kv1KVYnrM-9">
          <mxGeometry relative="1" as="geometry"/>
        </mxCell>
        <mxCell id="ioMPT5hYQp6Kv1KVYnrM-11" value="" style="endArrow=classic;html=1;entryX=0.5;entryY=0;entryDx=0;entryDy=0;shadow=0;" edge="1" parent="ioMPT5hYQp6Kv1KVYnrM-37" target="ioMPT5hYQp6Kv1KVYnrM-7">
          <mxGeometry width="50" height="50" relative="1" as="geometry">
            <mxPoint x="65.5" as="sourcePoint"/>
            <mxPoint x="17.5" y="-110" as="targetPoint"/>
          </mxGeometry>
        </mxCell>
        <mxCell id="ioMPT5hYQp6Kv1KVYnrM-12" value="x" style="text;html=1;align=center;verticalAlign=middle;resizable=0;points=[];autosize=1;shadow=0;" vertex="1" parent="ioMPT5hYQp6Kv1KVYnrM-37">
          <mxGeometry x="40" y="20" width="20" height="20" as="geometry"/>
        </mxCell>
        <mxCell id="ioMPT5hYQp6Kv1KVYnrM-13" value="" style="shape=orEllipse;perimeter=ellipsePerimeter;whiteSpace=wrap;html=1;backgroundOutline=1;shadow=0;" vertex="1" parent="ioMPT5hYQp6Kv1KVYnrM-37">
          <mxGeometry x="57.5" y="207.5" width="15" height="15" as="geometry"/>
        </mxCell>
        <mxCell id="ioMPT5hYQp6Kv1KVYnrM-14" value="" style="endArrow=classic;html=1;entryX=1;entryY=0.5;entryDx=0;entryDy=0;shadow=0;curved=1;" edge="1" parent="ioMPT5hYQp6Kv1KVYnrM-37" target="ioMPT5hYQp6Kv1KVYnrM-13">
          <mxGeometry width="50" height="50" relative="1" as="geometry">
            <mxPoint x="65.5" y="10" as="sourcePoint"/>
            <mxPoint x="87.5" y="220" as="targetPoint"/>
            <Array as="points">
              <mxPoint x="134" y="5"/>
              <mxPoint x="247" y="127"/>
              <mxPoint x="176" y="186"/>
              <mxPoint x="128" y="208"/>
            </Array>
          </mxGeometry>
        </mxCell>
        <mxCell id="ioMPT5hYQp6Kv1KVYnrM-15" value="x" style="text;html=1;strokeColor=none;fillColor=none;align=center;verticalAlign=middle;whiteSpace=wrap;rounded=0;shadow=0;" vertex="1" parent="ioMPT5hYQp6Kv1KVYnrM-37">
          <mxGeometry x="195.5" y="116" width="40" height="20" as="geometry"/>
        </mxCell>
        <mxCell id="ioMPT5hYQp6Kv1KVYnrM-16" value="BN&amp;amp;ReLU" style="text;html=1;strokeColor=none;fillColor=none;align=center;verticalAlign=middle;whiteSpace=wrap;rounded=0;shadow=0;" vertex="1" parent="ioMPT5hYQp6Kv1KVYnrM-37">
          <mxGeometry x="13" y="80" width="40" height="20" as="geometry"/>
        </mxCell>
        <mxCell id="ioMPT5hYQp6Kv1KVYnrM-17" value="" style="endArrow=classic;html=1;shadow=0;" edge="1" parent="ioMPT5hYQp6Kv1KVYnrM-37">
          <mxGeometry width="50" height="50" relative="1" as="geometry">
            <mxPoint x="64.5" y="222.5" as="sourcePoint"/>
            <mxPoint x="64.5" y="260" as="targetPoint"/>
          </mxGeometry>
        </mxCell>
        <mxCell id="ioMPT5hYQp6Kv1KVYnrM-18" value="H(X)" style="text;html=1;strokeColor=none;fillColor=none;align=center;verticalAlign=middle;whiteSpace=wrap;rounded=0;shadow=0;" vertex="1" parent="ioMPT5hYQp6Kv1KVYnrM-37">
          <mxGeometry x="10" y="205" width="40" height="20" as="geometry"/>
        </mxCell>
        <mxCell id="ioMPT5hYQp6Kv1KVYnrM-19" value="ReLU" style="text;html=1;strokeColor=none;fillColor=none;align=center;verticalAlign=middle;whiteSpace=wrap;rounded=0;shadow=0;" vertex="1" parent="ioMPT5hYQp6Kv1KVYnrM-37">
          <mxGeometry x="60.5" y="230" width="40" height="20" as="geometry"/>
        </mxCell>
        <mxCell id="ioMPT5hYQp6Kv1KVYnrM-22" value="权重层" style="rounded=0;whiteSpace=wrap;html=1;shadow=0;" vertex="1" parent="ioMPT5hYQp6Kv1KVYnrM-37">
          <mxGeometry y="153" width="130" height="30" as="geometry"/>
        </mxCell>
        <mxCell id="ioMPT5hYQp6Kv1KVYnrM-32" value="" style="endArrow=classic;html=1;shadow=0;exitX=0.5;exitY=1;exitDx=0;exitDy=0;entryX=0.5;entryY=0;entryDx=0;entryDy=0;" edge="1" parent="ioMPT5hYQp6Kv1KVYnrM-37" source="ioMPT5hYQp6Kv1KVYnrM-9" target="ioMPT5hYQp6Kv1KVYnrM-22">
          <mxGeometry width="50" height="50" relative="1" as="geometry">
            <mxPoint x="257" y="132" as="sourcePoint"/>
            <mxPoint x="257" y="173" as="targetPoint"/>
          </mxGeometry>
        </mxCell>
        <mxCell id="ioMPT5hYQp6Kv1KVYnrM-33" value="" style="endArrow=classic;html=1;shadow=0;" edge="1" parent="ioMPT5hYQp6Kv1KVYnrM-37">
          <mxGeometry width="50" height="50" relative="1" as="geometry">
            <mxPoint x="66" y="180" as="sourcePoint"/>
            <mxPoint x="66" y="205" as="targetPoint"/>
          </mxGeometry>
        </mxCell>
        <mxCell id="ioMPT5hYQp6Kv1KVYnrM-34" value="BN&amp;amp;ReLU" style="text;html=1;strokeColor=none;fillColor=none;align=center;verticalAlign=middle;whiteSpace=wrap;rounded=0;shadow=0;" vertex="1" parent="ioMPT5hYQp6Kv1KVYnrM-37">
          <mxGeometry x="13" y="130" width="40" height="20" as="geometry"/>
        </mxCell>
        <mxCell id="ioMPT5hYQp6Kv1KVYnrM-35" value="BN&amp;amp;ReLU" style="text;html=1;strokeColor=none;fillColor=none;align=center;verticalAlign=middle;whiteSpace=wrap;rounded=0;shadow=0;" vertex="1" parent="ioMPT5hYQp6Kv1KVYnrM-37">
          <mxGeometry x="79" y="16" width="40" height="20" as="geometry"/>
        </mxCell>
        <mxCell id="ioMPT5hYQp6Kv1KVYnrM-38" value="(a)" style="text;html=1;strokeColor=none;fillColor=none;align=center;verticalAlign=middle;whiteSpace=wrap;rounded=0;shadow=0;" vertex="1" parent="1">
          <mxGeometry x="652.5" y="-799" width="40" height="20" as="geometry"/>
        </mxCell>
        <mxCell id="ioMPT5hYQp6Kv1KVYnrM-39" value="（b）" style="text;html=1;strokeColor=none;fillColor=none;align=center;verticalAlign=middle;whiteSpace=wrap;rounded=0;shadow=0;" vertex="1" parent="1">
          <mxGeometry x="964" y="-799" width="40" height="20" as="geometry"/>
        </mxCell>
        <mxCell id="ioMPT5hYQp6Kv1KVYnrM-42" value="" style="edgeStyle=none;curved=1;orthogonalLoop=1;jettySize=auto;html=1;shadow=0;" edge="1" parent="1" source="ioMPT5hYQp6Kv1KVYnrM-40" target="ioMPT5hYQp6Kv1KVYnrM-41">
          <mxGeometry relative="1" as="geometry"/>
        </mxCell>
        <mxCell id="ioMPT5hYQp6Kv1KVYnrM-40" value="卷积层1" style="rounded=0;whiteSpace=wrap;html=1;shadow=0;" vertex="1" parent="1">
          <mxGeometry x="-546" y="-523" width="58" height="39" as="geometry"/>
        </mxCell>
        <mxCell id="ioMPT5hYQp6Kv1KVYnrM-44" value="" style="edgeStyle=none;curved=1;orthogonalLoop=1;jettySize=auto;html=1;shadow=0;" edge="1" parent="1" source="ioMPT5hYQp6Kv1KVYnrM-41" target="ioMPT5hYQp6Kv1KVYnrM-43">
          <mxGeometry relative="1" as="geometry"/>
        </mxCell>
        <mxCell id="ioMPT5hYQp6Kv1KVYnrM-41" value="BN层" style="rounded=0;whiteSpace=wrap;html=1;shadow=0;" vertex="1" parent="1">
          <mxGeometry x="-471" y="-523" width="58" height="39" as="geometry"/>
        </mxCell>
        <mxCell id="ioMPT5hYQp6Kv1KVYnrM-46" value="" style="edgeStyle=none;curved=1;orthogonalLoop=1;jettySize=auto;html=1;shadow=0;" edge="1" parent="1" source="ioMPT5hYQp6Kv1KVYnrM-43" target="ioMPT5hYQp6Kv1KVYnrM-45">
          <mxGeometry relative="1" as="geometry"/>
        </mxCell>
        <mxCell id="ioMPT5hYQp6Kv1KVYnrM-43" value="ReLU" style="rounded=0;whiteSpace=wrap;html=1;shadow=0;" vertex="1" parent="1">
          <mxGeometry x="-401" y="-523" width="58" height="39" as="geometry"/>
        </mxCell>
        <mxCell id="ioMPT5hYQp6Kv1KVYnrM-48" value="" style="edgeStyle=none;curved=1;orthogonalLoop=1;jettySize=auto;html=1;shadow=0;" edge="1" parent="1" source="ioMPT5hYQp6Kv1KVYnrM-45" target="ioMPT5hYQp6Kv1KVYnrM-47">
          <mxGeometry relative="1" as="geometry"/>
        </mxCell>
        <mxCell id="ioMPT5hYQp6Kv1KVYnrM-45" value="最大池化" style="rounded=0;whiteSpace=wrap;html=1;shadow=0;" vertex="1" parent="1">
          <mxGeometry x="-331" y="-523" width="58" height="39" as="geometry"/>
        </mxCell>
        <mxCell id="ioMPT5hYQp6Kv1KVYnrM-50" value="" style="edgeStyle=none;curved=1;orthogonalLoop=1;jettySize=auto;html=1;shadow=0;" edge="1" parent="1" source="ioMPT5hYQp6Kv1KVYnrM-47" target="ioMPT5hYQp6Kv1KVYnrM-49">
          <mxGeometry relative="1" as="geometry"/>
        </mxCell>
        <mxCell id="ioMPT5hYQp6Kv1KVYnrM-47" value="layer1（ResNet的第一层）" style="rounded=0;whiteSpace=wrap;html=1;shadow=0;" vertex="1" parent="1">
          <mxGeometry x="-253" y="-523" width="58" height="39" as="geometry"/>
        </mxCell>
        <mxCell id="ioMPT5hYQp6Kv1KVYnrM-52" value="" style="edgeStyle=none;curved=1;orthogonalLoop=1;jettySize=auto;html=1;shadow=0;" edge="1" parent="1" source="ioMPT5hYQp6Kv1KVYnrM-49" target="ioMPT5hYQp6Kv1KVYnrM-51">
          <mxGeometry relative="1" as="geometry"/>
        </mxCell>
        <mxCell id="ioMPT5hYQp6Kv1KVYnrM-49" value="layer2" style="rounded=0;whiteSpace=wrap;html=1;shadow=0;" vertex="1" parent="1">
          <mxGeometry x="-175" y="-523" width="58" height="39" as="geometry"/>
        </mxCell>
        <mxCell id="ioMPT5hYQp6Kv1KVYnrM-56" value="" style="edgeStyle=none;curved=1;orthogonalLoop=1;jettySize=auto;html=1;shadow=0;" edge="1" parent="1" source="ioMPT5hYQp6Kv1KVYnrM-51" target="ioMPT5hYQp6Kv1KVYnrM-55">
          <mxGeometry relative="1" as="geometry"/>
        </mxCell>
        <mxCell id="ioMPT5hYQp6Kv1KVYnrM-51" value="layer3" style="rounded=0;whiteSpace=wrap;html=1;shadow=0;" vertex="1" parent="1">
          <mxGeometry x="-92" y="-523" width="58" height="39" as="geometry"/>
        </mxCell>
        <mxCell id="ioMPT5hYQp6Kv1KVYnrM-60" value="最大池化" style="rounded=0;whiteSpace=wrap;html=1;shadow=0;" vertex="1" parent="1">
          <mxGeometry x="99" y="-569" width="58" height="39" as="geometry"/>
        </mxCell>
        <mxCell id="ioMPT5hYQp6Kv1KVYnrM-59" value="" style="edgeStyle=none;curved=1;orthogonalLoop=1;jettySize=auto;html=1;shadow=0;" edge="1" parent="1" source="ioMPT5hYQp6Kv1KVYnrM-55" target="ioMPT5hYQp6Kv1KVYnrM-58">
          <mxGeometry relative="1" as="geometry"/>
        </mxCell>
        <mxCell id="ioMPT5hYQp6Kv1KVYnrM-68" value="" style="edgeStyle=none;orthogonalLoop=1;jettySize=auto;html=1;shadow=0;entryX=0;entryY=0.5;entryDx=0;entryDy=0;rounded=1;" edge="1" parent="1" source="ioMPT5hYQp6Kv1KVYnrM-55" target="ioMPT5hYQp6Kv1KVYnrM-60">
          <mxGeometry relative="1" as="geometry">
            <mxPoint x="44" y="-404" as="targetPoint"/>
          </mxGeometry>
        </mxCell>
        <mxCell id="ioMPT5hYQp6Kv1KVYnrM-69" value="" style="edgeStyle=none;orthogonalLoop=1;jettySize=auto;html=1;shadow=0;entryX=0;entryY=0.5;entryDx=0;entryDy=0;rounded=1;" edge="1" parent="1" source="ioMPT5hYQp6Kv1KVYnrM-55" target="ioMPT5hYQp6Kv1KVYnrM-61">
          <mxGeometry relative="1" as="geometry">
            <mxPoint x="44" y="-404" as="targetPoint"/>
          </mxGeometry>
        </mxCell>
        <mxCell id="ioMPT5hYQp6Kv1KVYnrM-70" value="" style="edgeStyle=none;rounded=1;orthogonalLoop=1;jettySize=auto;html=1;shadow=0;entryX=0;entryY=0.5;entryDx=0;entryDy=0;" edge="1" parent="1" source="ioMPT5hYQp6Kv1KVYnrM-55" target="ioMPT5hYQp6Kv1KVYnrM-62">
          <mxGeometry relative="1" as="geometry">
            <mxPoint x="44" y="-404" as="targetPoint"/>
          </mxGeometry>
        </mxCell>
        <mxCell id="ioMPT5hYQp6Kv1KVYnrM-55" value="layer4" style="rounded=0;whiteSpace=wrap;html=1;shadow=0;" vertex="1" parent="1">
          <mxGeometry x="15" y="-523" width="58" height="39" as="geometry"/>
        </mxCell>
        <mxCell id="ioMPT5hYQp6Kv1KVYnrM-58" value="平均池化" style="rounded=0;whiteSpace=wrap;html=1;shadow=0;" vertex="1" parent="1">
          <mxGeometry x="99" y="-650" width="58" height="39" as="geometry"/>
        </mxCell>
        <mxCell id="ioMPT5hYQp6Kv1KVYnrM-65" value="" style="edgeStyle=none;curved=1;orthogonalLoop=1;jettySize=auto;html=1;shadow=0;entryX=0.5;entryY=0;entryDx=0;entryDy=0;" edge="1" parent="1" source="ioMPT5hYQp6Kv1KVYnrM-57" target="ioMPT5hYQp6Kv1KVYnrM-64">
          <mxGeometry relative="1" as="geometry">
            <mxPoint x="-7" y="-430" as="targetPoint"/>
          </mxGeometry>
        </mxCell>
        <mxCell id="ioMPT5hYQp6Kv1KVYnrM-57" value="x0" style="text;html=1;strokeColor=none;fillColor=none;align=center;verticalAlign=middle;whiteSpace=wrap;rounded=0;shadow=0;labelBorderColor=#FF3333;" vertex="1" parent="1">
          <mxGeometry x="-27" y="-530" width="40" height="20" as="geometry"/>
        </mxCell>
        <mxCell id="ioMPT5hYQp6Kv1KVYnrM-72" value="" style="edgeStyle=none;rounded=1;orthogonalLoop=1;jettySize=auto;html=1;shadow=0;" edge="1" parent="1" source="ioMPT5hYQp6Kv1KVYnrM-61" target="ioMPT5hYQp6Kv1KVYnrM-71">
          <mxGeometry relative="1" as="geometry"/>
        </mxCell>
        <mxCell id="ioMPT5hYQp6Kv1KVYnrM-61" value="平均池化" style="rounded=0;whiteSpace=wrap;html=1;shadow=0;" vertex="1" parent="1">
          <mxGeometry x="99" y="-496" width="58" height="39" as="geometry"/>
        </mxCell>
        <mxCell id="ioMPT5hYQp6Kv1KVYnrM-71" value="平均池化" style="rounded=0;whiteSpace=wrap;html=1;shadow=0;" vertex="1" parent="1">
          <mxGeometry x="233" y="-406" width="58" height="39" as="geometry"/>
        </mxCell>
        <mxCell id="ioMPT5hYQp6Kv1KVYnrM-62" value="平均池化" style="rounded=0;whiteSpace=wrap;html=1;shadow=0;" vertex="1" parent="1">
          <mxGeometry x="99" y="-423" width="58" height="39" as="geometry"/>
        </mxCell>
        <mxCell id="ioMPT5hYQp6Kv1KVYnrM-64" value="平均池化" style="rounded=0;whiteSpace=wrap;html=1;shadow=0;" vertex="1" parent="1">
          <mxGeometry x="-38" y="-643" width="58" height="39" as="geometry"/>
        </mxCell>
        <mxCell id="ioMPT5hYQp6Kv1KVYnrM-67" value="平均池化" style="rounded=0;whiteSpace=wrap;html=1;shadow=0;" vertex="1" parent="1">
          <mxGeometry x="96" y="-288" width="58" height="39" as="geometry"/>
        </mxCell>
      </root>
    </mxGraphModel>
  </diagram>
</mxfile>
